<svg width="32" height="32" viewBox="0 0 32 32" fill="none" xmlns="http://www.w3.org/2000/svg">
<path d="M26.6668 9.33337H25.3334H22.6667V6.6667V5.33337C22.6667 3.8627 21.4708 2.6667 20.0001 2.6667H12.0001C10.5294 2.6667 9.33342 3.8627 9.33342 5.33337V6.6667V9.33337H6.66675H5.33342C3.86275 9.33337 2.66675 10.5294 2.66675 12V20C2.66675 21.4707 3.86275 22.6667 5.33342 22.6667H6.66675H9.33342V25.3334V26.6667C9.33342 28.1374 10.5294 29.3334 12.0001 29.3334H20.0001C21.4708 29.3334 22.6667 28.1374 22.6667 26.6667V25.3334V22.6667H25.3334H26.6668C28.1374 22.6667 29.3334 21.4707 29.3334 20V12C29.3334 10.5294 28.1374 9.33337 26.6668 9.33337ZM26.6668 20H25.3334H21.3334H20.0001V25.3334H20.0014V26.6667H12.0001V25.3334V21.3334V20H10.6667H6.66675H5.33342V12H6.66675H10.6667H12.0001V10.6667V6.6667V5.33337H20.0001V6.6667V10.6667V12H21.3334H25.3334H26.6668V20Z" fill="#493220"/>
<path d="M10.6667 18.6667V13.3334L6.66675 16L10.6667 18.6667ZM21.3334 18.6667L25.3334 16L21.3334 13.3334V18.6667ZM13.3334 10.6667H18.6668L16.0001 6.6667L13.3334 10.6667ZM16.0001 25.3334L18.6668 21.3334H13.3334L16.0001 25.3334Z" fill="#493220"/>
<path d="M15.9999 18.6666C17.4727 18.6666 18.6666 17.4727 18.6666 16C18.6666 14.5272 17.4727 13.3333 15.9999 13.3333C14.5272 13.3333 13.3333 14.5272 13.3333 16C13.3333 17.4727 14.5272 18.6666 15.9999 18.6666Z" fill="#493220"/>
</svg>
