<svg width="32" height="32" viewBox="0 0 32 32" fill="none" xmlns="http://www.w3.org/2000/svg">
<path d="M20.7546 14.6947C23.5799 13.028 25.3332 9.95204 25.3332 6.6667V5.33337H26.6666V2.6667H25.3332H6.66659H5.33325V5.33337H6.66659V6.6667C6.66659 9.95204 8.41992 13.028 11.2453 14.6947C11.7173 14.972 11.9999 15.4214 11.9999 15.8947V16.1054C11.9999 16.5774 11.7173 17.0254 11.2453 17.3054C8.41992 18.972 6.66659 22.048 6.66659 25.3334V26.6667H5.33325V29.3334H6.66659H25.3332H26.6666V26.6667H25.3332V25.3334C25.3332 22.048 23.5799 18.972 20.7559 17.3067C20.2826 17.0267 19.9999 16.5774 19.9999 16.1054V15.8947C19.9999 15.4214 20.2826 14.972 20.7546 14.6947ZM19.4012 19.6027C21.4159 20.792 22.6666 22.9867 22.6666 25.3334V26.6667H9.33325V25.3334C9.33325 22.9867 10.5839 20.792 12.5999 19.6014C13.8946 18.8374 14.6666 17.5294 14.6666 16.1054V15.8947C14.6666 14.4694 13.8933 13.16 12.5986 12.3974C10.5839 11.208 9.33325 9.01337 9.33325 6.6667V5.33337H22.6666V6.6667C22.6666 9.01337 21.4159 11.208 19.4012 12.3974C18.1066 13.16 17.3333 14.4694 17.3333 15.8947V16.1054C17.3333 17.5294 18.1052 18.8374 19.4012 19.6027Z" fill="#493220"/>
</svg>
