<svg width="32" height="32" viewBox="0 0 32 32" fill="none" xmlns="http://www.w3.org/2000/svg">
<path d="M29.3054 11.536C29.0694 8.05863 26.1534 5.3333 22.6667 5.3333H9.33342C5.76142 5.3333 2.85608 8.1013 2.68408 11.6493C2.67075 11.7546 2.66675 11.864 2.66675 11.9866V22C2.66675 23.2333 3.16408 24.4373 4.02942 25.3013C4.89608 26.1693 6.10008 26.6666 7.33342 26.6666C9.23875 26.6666 10.4321 25.252 11.5854 23.884C12.0094 23.3813 12.4467 22.8613 12.9187 22.4133C13.2347 22.112 14.3881 21.5506 14.9707 21.412C15.3067 21.3333 16.6947 21.3346 17.0254 21.4106C17.6108 21.5493 18.7641 22.112 19.0801 22.412C19.5521 22.8613 19.9894 23.3813 20.4134 23.884C21.5681 25.252 22.7614 26.6666 24.6667 26.6666C25.9001 26.6666 27.1041 26.1693 27.9681 25.304C28.8361 24.4373 29.3334 23.2333 29.3334 22V12C29.3334 11.8733 29.3281 11.76 29.3148 11.6533C29.3121 11.616 29.3081 11.5773 29.3054 11.536ZM26.6668 22C26.6668 22.5293 26.4548 23.0453 26.0828 23.4173C25.7121 23.788 25.1961 24 24.6667 24C24.0001 24 23.2828 23.1493 22.4521 22.164C22.0041 21.6346 21.4961 21.032 20.9201 20.4813C20.1507 19.7493 18.4921 19.0173 17.6388 18.816C17.0841 18.6866 16.3734 18.6666 16.0001 18.6666C15.6267 18.6666 14.9161 18.6866 14.3601 18.8173C13.5094 19.0173 11.8507 19.7493 11.0814 20.4826C10.5041 21.032 9.99742 21.6333 9.54942 22.164C8.71742 23.1493 8.00008 24 7.33342 24C6.80408 24 6.28808 23.788 5.91608 23.416C5.54541 23.0453 5.33342 22.5293 5.33342 22L5.32141 12.0293C5.33475 11.9613 5.34275 11.892 5.34541 11.8226C5.42541 9.67996 7.17742 7.99996 9.33342 7.99996H22.6667C24.7561 7.99996 26.5028 9.6333 26.6401 11.6266C26.6401 11.7066 26.6468 11.7866 26.6534 11.7866C26.6534 11.872 26.6494 11.916 26.6668 12V22Z" fill="#BC631E"/>
<path d="M21.3333 17.3334C22.0697 17.3334 22.6667 16.7364 22.6667 16C22.6667 15.2637 22.0697 14.6667 21.3333 14.6667C20.597 14.6667 20 15.2637 20 16C20 16.7364 20.597 17.3334 21.3333 17.3334Z" fill="#BC631E"/>
<path d="M24.0001 14.6667C24.7365 14.6667 25.3334 14.0697 25.3334 13.3333C25.3334 12.597 24.7365 12 24.0001 12C23.2637 12 22.6667 12.597 22.6667 13.3333C22.6667 14.0697 23.2637 14.6667 24.0001 14.6667Z" fill="#BC631E"/>
<path d="M21.3333 12C22.0697 12 22.6667 11.403 22.6667 10.6666C22.6667 9.93025 22.0697 9.3333 21.3333 9.3333C20.597 9.3333 20 9.93025 20 10.6666C20 11.403 20.597 12 21.3333 12Z" fill="#BC631E"/>
<path d="M18.6666 14.6667C19.403 14.6667 19.9999 14.0697 19.9999 13.3333C19.9999 12.597 19.403 12 18.6666 12C17.9302 12 17.3333 12.597 17.3333 13.3333C17.3333 14.0697 17.9302 14.6667 18.6666 14.6667Z" fill="#BC631E"/>
<path d="M10.6667 16C12.1394 16 13.3333 14.8061 13.3333 13.3334C13.3333 11.8606 12.1394 10.6667 10.6667 10.6667C9.19391 10.6667 8 11.8606 8 13.3334C8 14.8061 9.19391 16 10.6667 16Z" fill="#BC631E"/>
</svg>
