<svg width="64" height="64" viewBox="0 0 64 64" fill="none" xmlns="http://www.w3.org/2000/svg">
<path d="M19.9973 29.3333C22.2065 29.3333 23.9973 27.5425 23.9973 25.3333C23.9973 23.1242 22.2065 21.3333 19.9973 21.3333C17.7882 21.3333 15.9973 23.1242 15.9973 25.3333C15.9973 27.5425 17.7882 29.3333 19.9973 29.3333Z" fill="#3F3B3B"/>
<path d="M27.9973 37.3333L23.9973 32L15.9973 42.6667H23.9973H31.9973H47.9973L35.9973 26.6667L27.9973 37.3333Z" fill="#3F3B3B"/>
<path d="M53.3308 10.6667H10.6641C7.72281 10.6667 5.33081 13.0587 5.33081 16V48C5.33081 50.9413 7.72281 53.3333 10.6641 53.3333H53.3308C56.2721 53.3333 58.6641 50.9413 58.6641 48V16C58.6641 13.0587 56.2721 10.6667 53.3308 10.6667ZM10.6641 48V16H53.3308L53.3361 48H10.6641Z" fill="#3F3B3B"/>
</svg>
